<?xml version="1.0" encoding="UTF-8"?>
<svg xmlns="http://www.w3.org/2000/svg" xmlns:xlink="http://www.w3.org/1999/xlink" width="3872.97" height="3872.97" viewBox="0 0 3872.97 3872.97">
<defs>
<clipPath id="clip-0">
<path clip-rule="nonzero" d="M 0 0 L 3872.96875 0 L 3872.96875 3872.96875 L 0 3872.96875 Z M 0 0 "/>
</clipPath>
<clipPath id="clip-1">
<path clip-rule="nonzero" d="M 842 770 L 3030 770 L 3030 3103 L 842 3103 Z M 842 770 "/>
</clipPath>
<clipPath id="clip-2">
<path clip-rule="evenodd" d="M 2125.28125 1743.269531 L 1044.140625 1743.269531 C 1008.148438 1743.269531 1008.148438 1688.601562 1044.140625 1688.601562 L 2125.300781 1688.601562 C 2161.300781 1688.601562 2161.300781 1743.269531 2125.28125 1743.269531 Z M 1198.488281 1886.039062 L 1044.160156 1886.039062 C 1008.171875 1886.039062 1008.171875 1831.371094 1044.160156 1831.371094 L 1198.488281 1831.371094 C 1234.46875 1831.371094 1234.488281 1886.039062 1198.488281 1886.039062 Z M 2409.648438 1886.039062 L 1328.519531 1886.039062 C 1292.519531 1886.039062 1292.519531 1831.371094 1328.519531 1831.371094 L 2409.648438 1831.371094 C 2445.628906 1831.371094 2445.648438 1886.039062 2409.648438 1886.039062 Z M 2125.28125 2028.828125 L 1044.140625 2028.828125 C 1008.148438 2028.828125 1008.148438 1974.160156 1044.140625 1974.160156 L 2125.300781 1974.160156 C 2161.300781 1974.160156 2161.28125 2028.828125 2125.28125 2028.828125 Z M 2409.628906 2028.828125 L 2255.28125 2028.828125 C 2219.289062 2028.828125 2219.308594 1974.160156 2255.28125 1974.160156 L 2409.628906 1974.160156 C 2445.601562 1974.160156 2445.601562 2028.828125 2409.628906 2028.828125 Z M 1198.488281 2171.628906 L 1044.160156 2171.628906 C 1008.171875 2171.628906 1008.171875 2116.949219 1044.160156 2116.949219 L 1198.488281 2116.949219 C 1234.46875 2116.949219 1234.488281 2171.628906 1198.488281 2171.628906 Z M 2409.648438 2171.628906 L 1328.519531 2171.628906 C 1292.53125 2171.628906 1292.53125 2116.949219 1328.519531 2116.949219 L 2409.648438 2116.949219 C 2445.628906 2116.949219 2445.648438 2171.628906 2409.648438 2171.628906 Z M 1539.160156 2314.429688 L 1044.140625 2314.429688 C 1008.148438 2314.429688 1008.148438 2259.75 1044.140625 2259.75 L 1539.160156 2259.75 C 1575.128906 2259.75 1575.140625 2314.429688 1539.160156 2314.429688 Z M 1726.878906 2314.429688 C 1677.070312 2314.429688 1622.378906 2324.878906 1622.378906 2287.078125 C 1622.378906 2249.289062 1677.070312 2259.75 1726.878906 2259.75 C 1762.859375 2259.75 1762.871094 2314.429688 1726.878906 2314.429688 Z M 1121.308594 2457.199219 C 1071.5 2457.199219 1016.820312 2467.660156 1016.820312 2429.878906 C 1016.820312 2392.070312 1071.5 2402.53125 1121.308594 2402.53125 C 1157.289062 2402.53125 1157.308594 2457.199219 1121.308594 2457.199219 Z M 1726.878906 2457.199219 L 1231.890625 2457.199219 C 1195.898438 2457.199219 1195.898438 2402.53125 1231.890625 2402.53125 L 1726.878906 2402.53125 C 1762.859375 2402.53125 1762.871094 2457.199219 1726.878906 2457.199219 Z M 1555.058594 1133.378906 C 1591.078125 1133.378906 1591.039062 1078.710938 1555.058594 1078.710938 L 1336.328125 1078.710938 C 1300.351562 1078.710938 1300.351562 1133.378906 1336.328125 1133.378906 L 1418.378906 1133.378906 L 1418.371094 1324.769531 C 1418.371094 1444.261719 1236.800781 1444.261719 1236.800781 1324.769531 C 1236.800781 1309.679688 1224.550781 1297.441406 1209.449219 1297.441406 C 1144.941406 1297.441406 1194.941406 1470.230469 1327.578125 1470.230469 C 1407.800781 1470.230469 1473.050781 1404.980469 1473.050781 1324.769531 L 1473.050781 1133.378906 Z M 1711.019531 1133.378906 L 1709.738281 1414.261719 L 1875.480469 1414.261719 L 1875.480469 1134.691406 Z M 1874.179688 1470.230469 C 1905.039062 1470.230469 1930.148438 1445.128906 1930.148438 1414.289062 L 1930.148438 1134.691406 C 1930.148438 1103.839844 1905.03125 1078.730469 1874.179688 1078.730469 L 1711.019531 1078.730469 C 1680.171875 1078.730469 1655.058594 1103.851562 1655.058594 1134.691406 L 1655.058594 1414.261719 C 1655.058594 1445.121094 1680.179688 1470.230469 1711.019531 1470.230469 Z M 2083.558594 1415.578125 C 2134.988281 1415.578125 2216.960938 1428.699219 2216.960938 1358.71875 C 2216.960938 1317.320312 2188.308594 1304.988281 2154.269531 1301.820312 L 2083.558594 1301.820312 Z M 2083.558594 1247.140625 L 2154.328125 1247.140625 C 2188.351562 1243.980469 2216.960938 1231.628906 2216.960938 1190.269531 C 2216.960938 1120.261719 2135.011719 1133.378906 2083.558594 1133.378906 Z M 2160.101562 1470.230469 C 2274.820312 1470.230469 2299.910156 1334.039062 2235.351562 1274.480469 C 2299.910156 1214.910156 2274.839844 1078.710938 2160.101562 1078.710938 L 2056.199219 1078.710938 C 2051.488281 1078.710938 2047.078125 1079.898438 2043.199219 1081.988281 C 2035.691406 1085.640625 2029.890625 1092.710938 2029 1103.191406 C 2028.910156 1104.128906 2028.851562 1105.078125 2028.851562 1106.050781 L 2028.851562 1442.890625 C 2028.851562 1455.648438 2037.601562 1466.359375 2049.390625 1469.371094 L 2050.019531 1469.53125 L 2050.039062 1469.53125 L 2050.691406 1469.679688 L 2050.710938 1469.679688 L 2051.359375 1469.808594 L 2051.378906 1469.808594 L 2052.039062 1469.921875 L 2052.058594 1469.921875 L 2052.710938 1470.011719 L 2052.730469 1470.011719 L 2053.398438 1470.089844 L 2053.421875 1470.089844 L 2054.078125 1470.148438 L 2054.121094 1470.148438 L 2054.789062 1470.199219 L 2054.808594 1470.199219 L 2055.488281 1470.21875 L 2055.511719 1470.21875 L 2056.199219 1470.230469 Z M 2610.851562 1245.738281 L 2610.851562 1019.730469 C 2610.851562 882.058594 2498.828125 770.050781 2361.148438 770.050781 L 1092.640625 770.050781 C 954.960938 770.050781 842.949219 882.058594 842.949219 1019.730469 L 842.949219 2852.320312 C 842.949219 2990.5 955.386719 3102.921875 1093.558594 3102.921875 L 2793.101562 3102.921875 C 2923.730469 3102.921875 3030.039062 2996.648438 3030 2866 L 3030 1273.078125 C 3030 1257.980469 3017.769531 1245.738281 3002.679688 1245.738281 Z M 2641.851562 3048.230469 C 2589.53125 3004.730469 2556.171875 2939.191406 2556.171875 2866 L 2556.171875 1019.730469 C 2556.171875 912.210938 2468.699219 824.730469 2361.171875 824.730469 L 1092.640625 824.730469 C 985.117188 824.730469 897.625 912.210938 897.625 1019.730469 L 897.625 2852.320312 C 897.625 2960.351562 985.515625 3048.230469 1093.558594 3048.230469 Z M 2793.101562 2703.140625 C 2778.011719 2703.140625 2765.75 2690.878906 2765.75 2675.789062 L 2765.75 1300.410156 L 2610.871094 1300.410156 L 2610.871094 2866 C 2610.871094 2965.929688 2691.679688 3047.300781 2791.410156 3048.230469 L 2793.121094 3048.230469 L 2793.730469 3048.25 C 2893.941406 3047.910156 2975.351562 2966.300781 2975.351562 2866 L 2975.351562 1300.410156 L 2820.441406 1300.410156 L 2820.441406 2675.769531 C 2820.460938 2690.878906 2808.191406 2703.140625 2793.101562 2703.140625 Z M 1097.238281 999.75 C 1083.019531 999.75 1071.480469 1011.308594 1071.480469 1025.511719 L 1071.480469 1523.421875 C 1071.480469 1537.640625 1083.039062 1549.199219 1097.238281 1549.199219 L 2356.53125 1549.210938 C 2370.75 1549.210938 2382.300781 1537.648438 2382.300781 1523.421875 L 2382.300781 1025.511719 C 2382.300781 1011.289062 2370.75 999.75 2356.53125 999.75 Z M 2356.53125 1603.871094 L 1097.238281 1603.871094 C 1052.878906 1603.871094 1016.800781 1567.769531 1016.800781 1523.410156 L 1016.800781 1025.511719 C 1016.800781 981.148438 1052.890625 945.070312 1097.238281 945.070312 L 2356.53125 945.070312 C 2400.898438 945.070312 2437 981.160156 2437 1025.511719 L 2437 1523.421875 C 2437 1567.789062 2400.898438 1603.871094 2356.53125 1603.871094 Z M 1539.140625 2600 L 1044.140625 2600 C 1008.148438 2600 1008.148438 2545.308594 1044.140625 2545.308594 L 1539.140625 2545.308594 C 1575.121094 2545.308594 1575.121094 2600 1539.140625 2600 Z M 1726.859375 2600 C 1677.039062 2600 1622.359375 2610.441406 1622.359375 2572.648438 C 1622.359375 2534.851562 1677.039062 2545.308594 1726.859375 2545.308594 C 1762.839844 2545.308594 1762.839844 2600 1726.859375 2600 Z M 1121.308594 2742.78125 C 1071.5 2742.78125 1016.820312 2753.238281 1016.820312 2715.449219 C 1016.820312 2677.648438 1071.5 2688.101562 1121.308594 2688.101562 C 1157.289062 2688.101562 1157.308594 2742.78125 1121.308594 2742.78125 Z M 1726.878906 2742.78125 L 1231.890625 2742.78125 C 1195.898438 2742.78125 1195.898438 2688.101562 1231.890625 2688.101562 L 1726.878906 2688.101562 C 1762.859375 2688.101562 1762.871094 2742.78125 1726.878906 2742.78125 Z M 2242.929688 2372.269531 L 2242.929688 2314.429688 L 2019.390625 2314.429688 L 2019.390625 2372.269531 Z M 1964.699219 2372.269531 L 1964.699219 2287.078125 C 1964.699219 2271.988281 1976.96875 2259.730469 1992.050781 2259.730469 L 2270.28125 2259.75 C 2285.371094 2259.75 2297.628906 2272 2297.628906 2287.078125 L 2297.628906 2372.269531 L 2409.691406 2372.269531 C 2417.878906 2372.269531 2423.828125 2374.871094 2428.101562 2379.449219 C 2433.570312 2384.449219 2437 2391.648438 2437 2399.621094 L 2437 2401.710938 C 2440.089844 2422.378906 2437.011719 2451.121094 2437.011719 2478.539062 L 2437 2480.101562 L 2437 2715.429688 C 2437 2730.511719 2424.761719 2742.78125 2409.648438 2742.78125 L 1852.679688 2742.78125 C 1837.589844 2742.78125 1825.339844 2730.519531 1825.339844 2715.449219 L 1825.339844 2474.960938 C 1825.101562 2448.730469 1822.429688 2421.699219 1825.339844 2401.949219 L 1825.339844 2399.640625 C 1825.339844 2391.53125 1828.871094 2384.269531 1834.460938 2379.261719 C 1838.710938 2374.789062 1844.589844 2372.269531 1852.691406 2372.269531 Z M 2104.808594 2581.019531 L 2104.808594 2540.429688 L 2104.828125 2534.03125 L 2157.5 2534.03125 L 2157.5 2581.019531 Z M 2049.96875 2530.160156 C 2050.058594 2522.839844 2050.128906 2515.050781 2050.128906 2506.710938 C 2050.128906 2501.269531 2051.710938 2496.230469 2054.441406 2491.988281 C 2056.46875 2487.941406 2059.441406 2485.070312 2063.800781 2483.03125 C 2067.820312 2480.691406 2072.488281 2479.359375 2077.480469 2479.359375 L 2079.28125 2479.359375 C 2090.5 2478.171875 2106.050781 2478.339844 2127.578125 2478.710938 C 2153.289062 2478.140625 2171.441406 2477.628906 2184.179688 2479.339844 L 2184.871094 2479.339844 C 2199.289062 2479.339844 2206.21875 2486.441406 2209.519531 2495.789062 C 2212.488281 2503.539062 2213.328125 2514.570312 2213.339844 2530.160156 C 2376.960938 2530.230469 2382.300781 2543.988281 2382.300781 2426.960938 L 1880.019531 2426.960938 C 1880.019531 2544.210938 1885.390625 2530.179688 2049.96875 2530.160156 Z M 2184.871094 2635.710938 C 2063.738281 2635.710938 2049.238281 2649.039062 2049 2586.28125 C 2023.398438 2586.410156 1986.078125 2584.851562 1931.648438 2584.851562 C 1912.921875 2584.851562 1895.308594 2579.980469 1880.019531 2571.449219 L 1880.019531 2688.089844 L 2382.320312 2688.089844 L 2382.320312 2571.46875 C 2367.019531 2580 2349.429688 2584.851562 2330.71875 2584.851562 C 2275.578125 2584.851562 2237.980469 2586.449219 2212.359375 2586.28125 C 2212.25 2593.199219 2212.191406 2600.539062 2212.191406 2608.359375 C 2212.191406 2623.449219 2199.960938 2635.710938 2184.871094 2635.710938 Z M 2125.28125 2885.578125 L 1044.140625 2885.578125 C 1008.148438 2885.578125 1008.148438 2830.898438 1044.140625 2830.898438 L 2125.300781 2830.898438 C 2161.300781 2830.898438 2161.28125 2885.578125 2125.28125 2885.578125 Z M 2409.628906 2885.578125 L 2255.28125 2885.578125 C 2219.289062 2885.578125 2219.308594 2830.898438 2255.28125 2830.898438 L 2409.628906 2830.898438 C 2445.601562 2830.898438 2445.601562 2885.578125 2409.628906 2885.578125 Z M 2409.628906 1743.269531 L 2255.28125 1743.269531 C 2219.289062 1743.269531 2219.308594 1688.601562 2255.28125 1688.601562 L 2409.628906 1688.601562 C 2445.621094 1688.601562 2445.621094 1743.269531 2409.628906 1743.269531 "/>
</clipPath>
<linearGradient id="linear-pattern-0" gradientUnits="userSpaceOnUse" x1="0.000000000000000056" y1="0" x2="1.000018" y2="0" gradientTransform="matrix(2187.05, 0, 0, 2187.05, 842.951, 1936.49)">
<stop offset="0" stop-color="rgb(99.998474%, 80.39093%, 1.176453%)" stop-opacity="1"/>
<stop offset="0.00390625" stop-color="rgb(99.520874%, 80.37262%, 1.437378%)" stop-opacity="1"/>
<stop offset="0.0078125" stop-color="rgb(99.0448%, 80.355835%, 1.698303%)" stop-opacity="1"/>
<stop offset="0.0117187" stop-color="rgb(98.5672%, 80.337524%, 1.959229%)" stop-opacity="1"/>
<stop offset="0.015625" stop-color="rgb(98.0896%, 80.319214%, 2.22168%)" stop-opacity="1"/>
<stop offset="0.0195312" stop-color="rgb(97.612%, 80.300903%, 2.482605%)" stop-opacity="1"/>
<stop offset="0.0234375" stop-color="rgb(97.134399%, 80.282593%, 2.74353%)" stop-opacity="1"/>
<stop offset="0.0273437" stop-color="rgb(96.656799%, 80.264282%, 3.004456%)" stop-opacity="1"/>
<stop offset="0.03125" stop-color="rgb(96.179199%, 80.247498%, 3.266907%)" stop-opacity="1"/>
<stop offset="0.0351562" stop-color="rgb(95.701599%, 80.229187%, 3.527832%)" stop-opacity="1"/>
<stop offset="0.0390625" stop-color="rgb(95.223999%, 80.210876%, 3.788757%)" stop-opacity="1"/>
<stop offset="0.0429687" stop-color="rgb(94.746399%, 80.192566%, 4.049683%)" stop-opacity="1"/>
<stop offset="0.046875" stop-color="rgb(94.268799%, 80.175781%, 4.312134%)" stop-opacity="1"/>
<stop offset="0.0507812" stop-color="rgb(93.791199%, 80.157471%, 4.573059%)" stop-opacity="1"/>
<stop offset="0.0546875" stop-color="rgb(93.313599%, 80.13916%, 4.833984%)" stop-opacity="1"/>
<stop offset="0.0585937" stop-color="rgb(92.835999%, 80.12085%, 5.09491%)" stop-opacity="1"/>
<stop offset="0.0625" stop-color="rgb(92.358398%, 80.102539%, 5.357361%)" stop-opacity="1"/>
<stop offset="0.0664062" stop-color="rgb(91.880798%, 80.084229%, 5.618286%)" stop-opacity="1"/>
<stop offset="0.0703125" stop-color="rgb(91.403198%, 80.067444%, 5.879211%)" stop-opacity="1"/>
<stop offset="0.0742187" stop-color="rgb(90.925598%, 80.049133%, 6.140137%)" stop-opacity="1"/>
<stop offset="0.078125" stop-color="rgb(90.447998%, 80.030823%, 6.402588%)" stop-opacity="1"/>
<stop offset="0.0820312" stop-color="rgb(89.970398%, 80.012512%, 6.663513%)" stop-opacity="1"/>
<stop offset="0.0859375" stop-color="rgb(89.492798%, 79.994202%, 6.924438%)" stop-opacity="1"/>
<stop offset="0.0898437" stop-color="rgb(89.015198%, 79.975891%, 7.185364%)" stop-opacity="1"/>
<stop offset="0.09375" stop-color="rgb(88.537598%, 79.959106%, 7.447815%)" stop-opacity="1"/>
<stop offset="0.0976562" stop-color="rgb(88.059998%, 79.940796%, 7.70874%)" stop-opacity="1"/>
<stop offset="0.101562" stop-color="rgb(87.582397%, 79.922485%, 7.969666%)" stop-opacity="1"/>
<stop offset="0.105469" stop-color="rgb(87.104797%, 79.904175%, 8.230591%)" stop-opacity="1"/>
<stop offset="0.109375" stop-color="rgb(86.627197%, 79.88739%, 8.493042%)" stop-opacity="1"/>
<stop offset="0.113281" stop-color="rgb(86.149597%, 79.86908%, 8.753967%)" stop-opacity="1"/>
<stop offset="0.117187" stop-color="rgb(85.671997%, 79.850769%, 9.014893%)" stop-opacity="1"/>
<stop offset="0.121094" stop-color="rgb(85.194397%, 79.832458%, 9.275818%)" stop-opacity="1"/>
<stop offset="0.125" stop-color="rgb(84.716797%, 79.814148%, 9.538269%)" stop-opacity="1"/>
<stop offset="0.128906" stop-color="rgb(84.239197%, 79.795837%, 9.799194%)" stop-opacity="1"/>
<stop offset="0.132812" stop-color="rgb(83.761597%, 79.779053%, 10.06012%)" stop-opacity="1"/>
<stop offset="0.136719" stop-color="rgb(83.283997%, 79.760742%, 10.321045%)" stop-opacity="1"/>
<stop offset="0.140625" stop-color="rgb(82.806396%, 79.742432%, 10.583496%)" stop-opacity="1"/>
<stop offset="0.144531" stop-color="rgb(82.328796%, 79.724121%, 10.844421%)" stop-opacity="1"/>
<stop offset="0.148437" stop-color="rgb(81.851196%, 79.705811%, 11.105347%)" stop-opacity="1"/>
<stop offset="0.152344" stop-color="rgb(81.373596%, 79.6875%, 11.366272%)" stop-opacity="1"/>
<stop offset="0.15625" stop-color="rgb(80.895996%, 79.670715%, 11.628723%)" stop-opacity="1"/>
<stop offset="0.160156" stop-color="rgb(80.418396%, 79.652405%, 11.889648%)" stop-opacity="1"/>
<stop offset="0.164062" stop-color="rgb(79.940796%, 79.634094%, 12.150574%)" stop-opacity="1"/>
<stop offset="0.167969" stop-color="rgb(79.463196%, 79.615784%, 12.411499%)" stop-opacity="1"/>
<stop offset="0.171875" stop-color="rgb(78.985596%, 79.598999%, 12.67395%)" stop-opacity="1"/>
<stop offset="0.175781" stop-color="rgb(78.507996%, 79.580688%, 12.934875%)" stop-opacity="1"/>
<stop offset="0.179687" stop-color="rgb(78.030396%, 79.562378%, 13.195801%)" stop-opacity="1"/>
<stop offset="0.183594" stop-color="rgb(77.552795%, 79.544067%, 13.456726%)" stop-opacity="1"/>
<stop offset="0.1875" stop-color="rgb(77.075195%, 79.525757%, 13.719177%)" stop-opacity="1"/>
<stop offset="0.191406" stop-color="rgb(76.597595%, 79.507446%, 13.980103%)" stop-opacity="1"/>
<stop offset="0.195312" stop-color="rgb(76.119995%, 79.490662%, 14.242554%)" stop-opacity="1"/>
<stop offset="0.199219" stop-color="rgb(75.642395%, 79.472351%, 14.503479%)" stop-opacity="1"/>
<stop offset="0.203125" stop-color="rgb(75.164795%, 79.454041%, 14.764404%)" stop-opacity="1"/>
<stop offset="0.207031" stop-color="rgb(74.687195%, 79.43573%, 15.02533%)" stop-opacity="1"/>
<stop offset="0.210937" stop-color="rgb(74.209595%, 79.418945%, 15.287781%)" stop-opacity="1"/>
<stop offset="0.214844" stop-color="rgb(73.731995%, 79.400635%, 15.548706%)" stop-opacity="1"/>
<stop offset="0.21875" stop-color="rgb(73.254395%, 79.382324%, 15.809631%)" stop-opacity="1"/>
<stop offset="0.222656" stop-color="rgb(72.776794%, 79.364014%, 16.070557%)" stop-opacity="1"/>
<stop offset="0.226562" stop-color="rgb(72.299194%, 79.345703%, 16.333008%)" stop-opacity="1"/>
<stop offset="0.230469" stop-color="rgb(71.821594%, 79.327393%, 16.593933%)" stop-opacity="1"/>
<stop offset="0.234375" stop-color="rgb(71.343994%, 79.310608%, 16.854858%)" stop-opacity="1"/>
<stop offset="0.238281" stop-color="rgb(70.866394%, 79.292297%, 17.115784%)" stop-opacity="1"/>
<stop offset="0.242187" stop-color="rgb(70.388794%, 79.273987%, 17.378235%)" stop-opacity="1"/>
<stop offset="0.246094" stop-color="rgb(69.911194%, 79.255676%, 17.63916%)" stop-opacity="1"/>
<stop offset="0.25" stop-color="rgb(69.433594%, 79.237366%, 17.900085%)" stop-opacity="1"/>
<stop offset="0.253906" stop-color="rgb(68.955994%, 79.219055%, 18.161011%)" stop-opacity="1"/>
<stop offset="0.257812" stop-color="rgb(68.478394%, 79.202271%, 18.423462%)" stop-opacity="1"/>
<stop offset="0.261719" stop-color="rgb(68.000793%, 79.18396%, 18.684387%)" stop-opacity="1"/>
<stop offset="0.265625" stop-color="rgb(67.523193%, 79.165649%, 18.945312%)" stop-opacity="1"/>
<stop offset="0.269531" stop-color="rgb(67.045593%, 79.147339%, 19.206238%)" stop-opacity="1"/>
<stop offset="0.273438" stop-color="rgb(66.567993%, 79.130554%, 19.468689%)" stop-opacity="1"/>
<stop offset="0.277344" stop-color="rgb(66.090393%, 79.112244%, 19.729614%)" stop-opacity="1"/>
<stop offset="0.28125" stop-color="rgb(65.612793%, 79.093933%, 19.99054%)" stop-opacity="1"/>
<stop offset="0.285156" stop-color="rgb(65.135193%, 79.075623%, 20.251465%)" stop-opacity="1"/>
<stop offset="0.289062" stop-color="rgb(64.657593%, 79.057312%, 20.513916%)" stop-opacity="1"/>
<stop offset="0.292969" stop-color="rgb(64.179993%, 79.039001%, 20.774841%)" stop-opacity="1"/>
<stop offset="0.296875" stop-color="rgb(63.702393%, 79.022217%, 21.035767%)" stop-opacity="1"/>
<stop offset="0.300781" stop-color="rgb(63.224792%, 79.003906%, 21.296692%)" stop-opacity="1"/>
<stop offset="0.304687" stop-color="rgb(62.747192%, 78.985596%, 21.559143%)" stop-opacity="1"/>
<stop offset="0.308594" stop-color="rgb(62.269592%, 78.967285%, 21.820068%)" stop-opacity="1"/>
<stop offset="0.3125" stop-color="rgb(61.791992%, 78.948975%, 22.080994%)" stop-opacity="1"/>
<stop offset="0.316406" stop-color="rgb(61.314392%, 78.930664%, 22.341919%)" stop-opacity="1"/>
<stop offset="0.320312" stop-color="rgb(60.836792%, 78.913879%, 22.60437%)" stop-opacity="1"/>
<stop offset="0.324219" stop-color="rgb(60.359192%, 78.895569%, 22.865295%)" stop-opacity="1"/>
<stop offset="0.328125" stop-color="rgb(59.881592%, 78.877258%, 23.126221%)" stop-opacity="1"/>
<stop offset="0.332031" stop-color="rgb(59.403992%, 78.858948%, 23.387146%)" stop-opacity="1"/>
<stop offset="0.335937" stop-color="rgb(58.926392%, 78.842163%, 23.649597%)" stop-opacity="1"/>
<stop offset="0.339844" stop-color="rgb(58.432007%, 78.820801%, 24.169922%)" stop-opacity="1"/>
<stop offset="0.34375" stop-color="rgb(57.937622%, 78.800964%, 24.690247%)" stop-opacity="1"/>
<stop offset="0.347656" stop-color="rgb(57.424927%, 78.779602%, 25.491333%)" stop-opacity="1"/>
<stop offset="0.351562" stop-color="rgb(56.913757%, 78.75824%, 26.292419%)" stop-opacity="1"/>
<stop offset="0.355469" stop-color="rgb(56.401062%, 78.735352%, 27.093506%)" stop-opacity="1"/>
<stop offset="0.359375" stop-color="rgb(55.889893%, 78.713989%, 27.894592%)" stop-opacity="1"/>
<stop offset="0.363281" stop-color="rgb(55.377197%, 78.691101%, 28.695679%)" stop-opacity="1"/>
<stop offset="0.367188" stop-color="rgb(54.866028%, 78.669739%, 29.496765%)" stop-opacity="1"/>
<stop offset="0.371094" stop-color="rgb(54.353333%, 78.648376%, 30.297852%)" stop-opacity="1"/>
<stop offset="0.375" stop-color="rgb(53.842163%, 78.627014%, 31.098938%)" stop-opacity="1"/>
<stop offset="0.378906" stop-color="rgb(53.329468%, 78.604126%, 31.900024%)" stop-opacity="1"/>
<stop offset="0.382812" stop-color="rgb(52.816772%, 78.582764%, 32.701111%)" stop-opacity="1"/>
<stop offset="0.386719" stop-color="rgb(52.304077%, 78.559875%, 33.500671%)" stop-opacity="1"/>
<stop offset="0.390625" stop-color="rgb(51.792908%, 78.538513%, 34.301758%)" stop-opacity="1"/>
<stop offset="0.394531" stop-color="rgb(51.280212%, 78.517151%, 35.102844%)" stop-opacity="1"/>
<stop offset="0.398437" stop-color="rgb(50.769043%, 78.495789%, 35.903931%)" stop-opacity="1"/>
<stop offset="0.402344" stop-color="rgb(50.256348%, 78.4729%, 36.705017%)" stop-opacity="1"/>
<stop offset="0.40625" stop-color="rgb(49.745178%, 78.451538%, 37.506104%)" stop-opacity="1"/>
<stop offset="0.410156" stop-color="rgb(49.232483%, 78.42865%, 38.30719%)" stop-opacity="1"/>
<stop offset="0.414062" stop-color="rgb(48.721313%, 78.407288%, 39.108276%)" stop-opacity="1"/>
<stop offset="0.417969" stop-color="rgb(48.208618%, 78.385925%, 39.909363%)" stop-opacity="1"/>
<stop offset="0.421875" stop-color="rgb(47.695923%, 78.364563%, 40.710449%)" stop-opacity="1"/>
<stop offset="0.425781" stop-color="rgb(47.183228%, 78.341675%, 41.511536%)" stop-opacity="1"/>
<stop offset="0.429687" stop-color="rgb(46.672058%, 78.320312%, 42.312622%)" stop-opacity="1"/>
<stop offset="0.433594" stop-color="rgb(46.159363%, 78.297424%, 43.112183%)" stop-opacity="1"/>
<stop offset="0.4375" stop-color="rgb(45.648193%, 78.276062%, 43.913269%)" stop-opacity="1"/>
<stop offset="0.441406" stop-color="rgb(45.135498%, 78.2547%, 44.714355%)" stop-opacity="1"/>
<stop offset="0.445312" stop-color="rgb(44.624329%, 78.233337%, 45.515442%)" stop-opacity="1"/>
<stop offset="0.449219" stop-color="rgb(44.111633%, 78.210449%, 46.316528%)" stop-opacity="1"/>
<stop offset="0.453125" stop-color="rgb(43.600464%, 78.189087%, 47.117615%)" stop-opacity="1"/>
<stop offset="0.457031" stop-color="rgb(43.087769%, 78.166199%, 47.918701%)" stop-opacity="1"/>
<stop offset="0.460937" stop-color="rgb(42.575073%, 78.144836%, 48.719788%)" stop-opacity="1"/>
<stop offset="0.464844" stop-color="rgb(42.062378%, 78.123474%, 49.520874%)" stop-opacity="1"/>
<stop offset="0.46875" stop-color="rgb(41.551208%, 78.102112%, 50.32196%)" stop-opacity="1"/>
<stop offset="0.472656" stop-color="rgb(41.038513%, 78.079224%, 51.123047%)" stop-opacity="1"/>
<stop offset="0.476562" stop-color="rgb(40.527344%, 78.057861%, 51.924133%)" stop-opacity="1"/>
<stop offset="0.480469" stop-color="rgb(40.014648%, 78.034973%, 52.72522%)" stop-opacity="1"/>
<stop offset="0.484375" stop-color="rgb(39.503479%, 78.013611%, 53.526306%)" stop-opacity="1"/>
<stop offset="0.488281" stop-color="rgb(38.990784%, 77.990723%, 54.325867%)" stop-opacity="1"/>
<stop offset="0.492187" stop-color="rgb(38.478088%, 77.96936%, 55.126953%)" stop-opacity="1"/>
<stop offset="0.496094" stop-color="rgb(37.965393%, 77.947998%, 55.92804%)" stop-opacity="1"/>
<stop offset="0.5" stop-color="rgb(37.454224%, 77.926636%, 56.729126%)" stop-opacity="1"/>
<stop offset="0.503906" stop-color="rgb(36.941528%, 77.903748%, 57.530212%)" stop-opacity="1"/>
<stop offset="0.507812" stop-color="rgb(36.430359%, 77.882385%, 58.331299%)" stop-opacity="1"/>
<stop offset="0.511719" stop-color="rgb(35.917664%, 77.859497%, 59.132385%)" stop-opacity="1"/>
<stop offset="0.515625" stop-color="rgb(35.406494%, 77.838135%, 59.933472%)" stop-opacity="1"/>
<stop offset="0.519531" stop-color="rgb(34.893799%, 77.816772%, 60.734558%)" stop-opacity="1"/>
<stop offset="0.523437" stop-color="rgb(34.382629%, 77.79541%, 61.535645%)" stop-opacity="1"/>
<stop offset="0.527344" stop-color="rgb(33.869934%, 77.772522%, 62.336731%)" stop-opacity="1"/>
<stop offset="0.53125" stop-color="rgb(33.357239%, 77.75116%, 63.137817%)" stop-opacity="1"/>
<stop offset="0.535156" stop-color="rgb(32.844543%, 77.728271%, 63.937378%)" stop-opacity="1"/>
<stop offset="0.539062" stop-color="rgb(32.333374%, 77.706909%, 64.738464%)" stop-opacity="1"/>
<stop offset="0.542969" stop-color="rgb(31.820679%, 77.685547%, 65.539551%)" stop-opacity="1"/>
<stop offset="0.546875" stop-color="rgb(31.309509%, 77.664185%, 66.340637%)" stop-opacity="1"/>
<stop offset="0.550781" stop-color="rgb(30.796814%, 77.641296%, 67.141724%)" stop-opacity="1"/>
<stop offset="0.554688" stop-color="rgb(30.285645%, 77.619934%, 67.94281%)" stop-opacity="1"/>
<stop offset="0.558594" stop-color="rgb(29.772949%, 77.597046%, 68.743896%)" stop-opacity="1"/>
<stop offset="0.5625" stop-color="rgb(29.26178%, 77.575684%, 69.544983%)" stop-opacity="1"/>
<stop offset="0.566406" stop-color="rgb(28.749084%, 77.554321%, 70.346069%)" stop-opacity="1"/>
<stop offset="0.570312" stop-color="rgb(28.236389%, 77.532959%, 71.147156%)" stop-opacity="1"/>
<stop offset="0.574219" stop-color="rgb(27.723694%, 77.510071%, 71.948242%)" stop-opacity="1"/>
<stop offset="0.578125" stop-color="rgb(27.212524%, 77.488708%, 72.749329%)" stop-opacity="1"/>
<stop offset="0.582031" stop-color="rgb(26.699829%, 77.46582%, 73.548889%)" stop-opacity="1"/>
<stop offset="0.585937" stop-color="rgb(26.18866%, 77.444458%, 74.349976%)" stop-opacity="1"/>
<stop offset="0.589844" stop-color="rgb(25.675964%, 77.423096%, 75.151062%)" stop-opacity="1"/>
<stop offset="0.59375" stop-color="rgb(25.164795%, 77.401733%, 75.952148%)" stop-opacity="1"/>
<stop offset="0.597656" stop-color="rgb(24.6521%, 77.378845%, 76.753235%)" stop-opacity="1"/>
<stop offset="0.601562" stop-color="rgb(24.14093%, 77.357483%, 77.554321%)" stop-opacity="1"/>
<stop offset="0.605469" stop-color="rgb(23.628235%, 77.334595%, 78.355408%)" stop-opacity="1"/>
<stop offset="0.609375" stop-color="rgb(23.11554%, 77.313232%, 79.156494%)" stop-opacity="1"/>
<stop offset="0.613281" stop-color="rgb(22.602844%, 77.29187%, 79.957581%)" stop-opacity="1"/>
<stop offset="0.617187" stop-color="rgb(22.091675%, 77.270508%, 80.758667%)" stop-opacity="1"/>
<stop offset="0.621094" stop-color="rgb(21.578979%, 77.24762%, 81.559753%)" stop-opacity="1"/>
<stop offset="0.625" stop-color="rgb(21.06781%, 77.226257%, 82.36084%)" stop-opacity="1"/>
<stop offset="0.628906" stop-color="rgb(20.555115%, 77.203369%, 83.1604%)" stop-opacity="1"/>
<stop offset="0.632812" stop-color="rgb(20.043945%, 77.182007%, 83.961487%)" stop-opacity="1"/>
<stop offset="0.636719" stop-color="rgb(19.53125%, 77.159119%, 84.762573%)" stop-opacity="1"/>
<stop offset="0.640625" stop-color="rgb(19.020081%, 77.137756%, 85.56366%)" stop-opacity="1"/>
<stop offset="0.644531" stop-color="rgb(18.507385%, 77.116394%, 86.364746%)" stop-opacity="1"/>
<stop offset="0.648438" stop-color="rgb(17.99469%, 77.095032%, 87.165833%)" stop-opacity="1"/>
<stop offset="0.652344" stop-color="rgb(17.481995%, 77.072144%, 87.966919%)" stop-opacity="1"/>
<stop offset="0.65625" stop-color="rgb(16.970825%, 77.050781%, 88.768005%)" stop-opacity="1"/>
<stop offset="0.660156" stop-color="rgb(16.45813%, 77.027893%, 89.569092%)" stop-opacity="1"/>
<stop offset="0.664062" stop-color="rgb(15.94696%, 77.006531%, 90.370178%)" stop-opacity="1"/>
<stop offset="0.667969" stop-color="rgb(15.434265%, 76.985168%, 91.171265%)" stop-opacity="1"/>
<stop offset="0.671875" stop-color="rgb(14.923096%, 76.963806%, 91.972351%)" stop-opacity="1"/>
<stop offset="0.675781" stop-color="rgb(14.4104%, 76.940918%, 92.771912%)" stop-opacity="1"/>
<stop offset="0.679687" stop-color="rgb(13.899231%, 76.919556%, 93.572998%)" stop-opacity="1"/>
<stop offset="0.683594" stop-color="rgb(13.386536%, 76.896667%, 94.374084%)" stop-opacity="1"/>
<stop offset="0.6875" stop-color="rgb(12.87384%, 76.875305%, 95.175171%)" stop-opacity="1"/>
<stop offset="0.691406" stop-color="rgb(13.037109%, 76.412964%, 95.117188%)" stop-opacity="1"/>
<stop offset="0.695312" stop-color="rgb(13.201904%, 75.952148%, 95.059204%)" stop-opacity="1"/>
<stop offset="0.699219" stop-color="rgb(13.68103%, 75.285339%, 94.599915%)" stop-opacity="1"/>
<stop offset="0.703125" stop-color="rgb(14.160156%, 74.61853%, 94.140625%)" stop-opacity="1"/>
<stop offset="0.707031" stop-color="rgb(14.639282%, 73.950195%, 93.67981%)" stop-opacity="1"/>
<stop offset="0.710937" stop-color="rgb(15.118408%, 73.283386%, 93.22052%)" stop-opacity="1"/>
<stop offset="0.714844" stop-color="rgb(15.597534%, 72.616577%, 92.76123%)" stop-opacity="1"/>
<stop offset="0.71875" stop-color="rgb(16.078186%, 71.949768%, 92.301941%)" stop-opacity="1"/>
<stop offset="0.722656" stop-color="rgb(16.557312%, 71.282959%, 91.841125%)" stop-opacity="1"/>
<stop offset="0.726562" stop-color="rgb(17.036438%, 70.61615%, 91.381836%)" stop-opacity="1"/>
<stop offset="0.730469" stop-color="rgb(17.515564%, 69.947815%, 90.922546%)" stop-opacity="1"/>
<stop offset="0.734375" stop-color="rgb(17.99469%, 69.281006%, 90.463257%)" stop-opacity="1"/>
<stop offset="0.738281" stop-color="rgb(18.473816%, 68.614197%, 90.003967%)" stop-opacity="1"/>
<stop offset="0.742188" stop-color="rgb(18.952942%, 67.947388%, 89.544678%)" stop-opacity="1"/>
<stop offset="0.746094" stop-color="rgb(19.432068%, 67.279053%, 89.083862%)" stop-opacity="1"/>
<stop offset="0.75" stop-color="rgb(19.91272%, 66.612244%, 88.624573%)" stop-opacity="1"/>
<stop offset="0.753906" stop-color="rgb(20.391846%, 65.945435%, 88.165283%)" stop-opacity="1"/>
<stop offset="0.757812" stop-color="rgb(20.870972%, 65.278625%, 87.705994%)" stop-opacity="1"/>
<stop offset="0.761719" stop-color="rgb(21.350098%, 64.611816%, 87.246704%)" stop-opacity="1"/>
<stop offset="0.765625" stop-color="rgb(21.829224%, 63.945007%, 86.787415%)" stop-opacity="1"/>
<stop offset="0.769531" stop-color="rgb(22.30835%, 63.276672%, 86.326599%)" stop-opacity="1"/>
<stop offset="0.773437" stop-color="rgb(22.789001%, 62.609863%, 85.86731%)" stop-opacity="1"/>
<stop offset="0.777344" stop-color="rgb(23.268127%, 61.943054%, 85.40802%)" stop-opacity="1"/>
<stop offset="0.78125" stop-color="rgb(23.747253%, 61.276245%, 84.94873%)" stop-opacity="1"/>
<stop offset="0.785156" stop-color="rgb(24.226379%, 60.609436%, 84.489441%)" stop-opacity="1"/>
<stop offset="0.789062" stop-color="rgb(24.705505%, 59.942627%, 84.030151%)" stop-opacity="1"/>
<stop offset="0.792969" stop-color="rgb(25.184631%, 59.274292%, 83.569336%)" stop-opacity="1"/>
<stop offset="0.796875" stop-color="rgb(25.663757%, 58.607483%, 83.110046%)" stop-opacity="1"/>
<stop offset="0.800781" stop-color="rgb(26.142883%, 57.940674%, 82.650757%)" stop-opacity="1"/>
<stop offset="0.804687" stop-color="rgb(26.623535%, 57.273865%, 82.191467%)" stop-opacity="1"/>
<stop offset="0.808594" stop-color="rgb(27.102661%, 56.60553%, 81.730652%)" stop-opacity="1"/>
<stop offset="0.8125" stop-color="rgb(27.581787%, 55.938721%, 81.271362%)" stop-opacity="1"/>
<stop offset="0.816406" stop-color="rgb(28.060913%, 55.271912%, 80.812073%)" stop-opacity="1"/>
<stop offset="0.820312" stop-color="rgb(28.540039%, 54.605103%, 80.352783%)" stop-opacity="1"/>
<stop offset="0.824219" stop-color="rgb(29.019165%, 53.938293%, 79.893494%)" stop-opacity="1"/>
<stop offset="0.828125" stop-color="rgb(29.498291%, 53.271484%, 79.434204%)" stop-opacity="1"/>
<stop offset="0.832031" stop-color="rgb(29.977417%, 52.603149%, 78.973389%)" stop-opacity="1"/>
<stop offset="0.835938" stop-color="rgb(30.458069%, 51.93634%, 78.514099%)" stop-opacity="1"/>
<stop offset="0.839844" stop-color="rgb(30.937195%, 51.269531%, 78.05481%)" stop-opacity="1"/>
<stop offset="0.84375" stop-color="rgb(31.416321%, 50.602722%, 77.59552%)" stop-opacity="1"/>
<stop offset="0.847656" stop-color="rgb(31.895447%, 49.934387%, 77.13623%)" stop-opacity="1"/>
<stop offset="0.851562" stop-color="rgb(32.374573%, 49.267578%, 76.676941%)" stop-opacity="1"/>
<stop offset="0.855469" stop-color="rgb(32.853699%, 48.600769%, 76.216125%)" stop-opacity="1"/>
<stop offset="0.859375" stop-color="rgb(33.334351%, 47.93396%, 75.756836%)" stop-opacity="1"/>
<stop offset="0.863281" stop-color="rgb(33.813477%, 47.267151%, 75.297546%)" stop-opacity="1"/>
<stop offset="0.867187" stop-color="rgb(34.292603%, 46.600342%, 74.838257%)" stop-opacity="1"/>
<stop offset="0.871094" stop-color="rgb(34.771729%, 45.932007%, 74.378967%)" stop-opacity="1"/>
<stop offset="0.875" stop-color="rgb(35.250854%, 45.265198%, 73.919678%)" stop-opacity="1"/>
<stop offset="0.878906" stop-color="rgb(35.72998%, 44.598389%, 73.458862%)" stop-opacity="1"/>
<stop offset="0.882812" stop-color="rgb(36.209106%, 43.93158%, 72.999573%)" stop-opacity="1"/>
<stop offset="0.886719" stop-color="rgb(36.688232%, 43.263245%, 72.540283%)" stop-opacity="1"/>
<stop offset="0.890625" stop-color="rgb(37.168884%, 42.596436%, 72.080994%)" stop-opacity="1"/>
<stop offset="0.894531" stop-color="rgb(37.64801%, 41.929626%, 71.620178%)" stop-opacity="1"/>
<stop offset="0.898437" stop-color="rgb(38.127136%, 41.262817%, 71.160889%)" stop-opacity="1"/>
<stop offset="0.902344" stop-color="rgb(38.606262%, 40.596008%, 70.701599%)" stop-opacity="1"/>
<stop offset="0.90625" stop-color="rgb(39.085388%, 39.929199%, 70.24231%)" stop-opacity="1"/>
<stop offset="0.910156" stop-color="rgb(39.564514%, 39.260864%, 69.78302%)" stop-opacity="1"/>
<stop offset="0.914062" stop-color="rgb(40.04364%, 38.594055%, 69.32373%)" stop-opacity="1"/>
<stop offset="0.917969" stop-color="rgb(40.522766%, 37.927246%, 68.862915%)" stop-opacity="1"/>
<stop offset="0.921875" stop-color="rgb(41.003418%, 37.260437%, 68.403625%)" stop-opacity="1"/>
<stop offset="0.925781" stop-color="rgb(41.482544%, 36.592102%, 67.944336%)" stop-opacity="1"/>
<stop offset="0.929688" stop-color="rgb(41.96167%, 35.925293%, 67.485046%)" stop-opacity="1"/>
<stop offset="0.933594" stop-color="rgb(42.440796%, 35.258484%, 67.025757%)" stop-opacity="1"/>
<stop offset="0.9375" stop-color="rgb(42.919922%, 34.591675%, 66.566467%)" stop-opacity="1"/>
<stop offset="0.941406" stop-color="rgb(43.399048%, 33.924866%, 66.105652%)" stop-opacity="1"/>
<stop offset="0.945312" stop-color="rgb(43.8797%, 33.258057%, 65.646362%)" stop-opacity="1"/>
<stop offset="0.949219" stop-color="rgb(44.358826%, 32.589722%, 65.187073%)" stop-opacity="1"/>
<stop offset="0.953125" stop-color="rgb(44.837952%, 31.922913%, 64.727783%)" stop-opacity="1"/>
<stop offset="0.957031" stop-color="rgb(45.317078%, 31.256104%, 64.268494%)" stop-opacity="1"/>
<stop offset="0.960937" stop-color="rgb(45.796204%, 30.589294%, 63.809204%)" stop-opacity="1"/>
<stop offset="0.964844" stop-color="rgb(46.27533%, 29.920959%, 63.348389%)" stop-opacity="1"/>
<stop offset="0.96875" stop-color="rgb(46.754456%, 29.25415%, 62.889099%)" stop-opacity="1"/>
<stop offset="0.972656" stop-color="rgb(47.233582%, 28.587341%, 62.42981%)" stop-opacity="1"/>
<stop offset="0.976562" stop-color="rgb(47.714233%, 27.920532%, 61.97052%)" stop-opacity="1"/>
<stop offset="0.980469" stop-color="rgb(48.193359%, 27.253723%, 61.509705%)" stop-opacity="1"/>
<stop offset="0.984375" stop-color="rgb(48.672485%, 26.586914%, 61.050415%)" stop-opacity="1"/>
<stop offset="0.988281" stop-color="rgb(49.151611%, 25.918579%, 60.591125%)" stop-opacity="1"/>
<stop offset="0.992187" stop-color="rgb(49.630737%, 25.25177%, 60.131836%)" stop-opacity="1"/>
<stop offset="0.996094" stop-color="rgb(50.108337%, 24.586487%, 59.672546%)" stop-opacity="1"/>
<stop offset="1" stop-color="rgb(50.587463%, 23.921204%, 59.214783%)" stop-opacity="1"/>
</linearGradient>
</defs>
<g clip-path="url(#clip-0)">
<path fill-rule="evenodd" fill="rgb(9.008789%, 3.137207%, 16.088867%)" fill-opacity="1" d="M 713.855469 0 L 3159.121094 0 C 3551.75 0 3872.96875 321.230469 3872.96875 713.859375 L 3872.96875 3159.121094 C 3872.96875 3551.75 3551.75 3872.96875 3159.121094 3872.96875 L 713.855469 3872.96875 C 321.230469 3872.96875 0 3551.75 0 3159.121094 L 0 713.859375 C 0 321.230469 321.230469 0 713.855469 0 "/>
</g>
<g clip-path="url(#clip-1)">
<g clip-path="url(#clip-2)">
<path fill-rule="nonzero" fill="url(#linear-pattern-0)" d="M 842.949219 770.050781 L 842.949219 3102.921875 L 3030.039062 3102.921875 L 3030.039062 770.050781 Z M 842.949219 770.050781 "/>
</g>
</g>
</svg>
